<svg width="53" height="54" viewBox="0 0 53 54" fill="none" xmlns="http://www.w3.org/2000/svg">
<path d="M26.493 13.5675C19.0416 13.5675 13.0279 19.5811 13.0279 27.0325C13.0279 34.4839 19.0416 40.4976 26.493 40.4976C33.9444 40.4976 39.958 34.4839 39.958 27.0325C39.958 19.5811 33.9444 13.5675 26.493 13.5675ZM26.493 35.7838C21.6742 35.7838 17.7417 31.8513 17.7417 27.0325C17.7417 22.2137 21.6742 18.2812 26.493 18.2812C31.3118 18.2812 35.2443 22.2137 35.2443 27.0325C35.2443 31.8513 31.3118 35.7838 26.493 35.7838ZM40.5095 9.87789C38.7697 9.87789 37.3648 11.2828 37.3648 13.0226C37.3648 14.7623 38.7697 16.1673 40.5095 16.1673C42.2492 16.1673 43.6542 14.7689 43.6542 13.0226C43.6547 12.6095 43.5737 12.2003 43.4158 11.8185C43.258 11.4368 43.0264 11.0899 42.7343 10.7978C42.4421 10.5057 42.0953 10.2741 41.7135 10.1162C41.3317 9.95836 40.9226 9.87737 40.5095 9.87789V9.87789ZM52.7403 27.0325C52.7403 23.4086 52.7731 19.8175 52.5696 16.2001C52.3661 11.9984 51.4076 8.26944 48.3351 5.19697C45.2561 2.11793 41.5336 1.16599 37.332 0.962471C33.708 0.758953 30.1169 0.791778 26.4995 0.791778C22.8756 0.791778 19.2845 0.758953 15.6671 0.962471C11.4654 1.16599 7.73645 2.12449 4.66398 5.19697C1.58494 8.276 0.633 11.9984 0.429481 16.2001C0.225963 19.824 0.258789 23.4151 0.258789 27.0325C0.258789 30.6499 0.225963 34.2476 0.429481 37.8649C0.633 42.0666 1.59151 45.7956 4.66398 48.8681C7.74301 51.9471 11.4654 52.899 15.6671 53.1026C19.291 53.3061 22.8822 53.2733 26.4995 53.2733C30.1235 53.2733 33.7146 53.3061 37.332 53.1026C41.5336 52.899 45.2626 51.9405 48.3351 48.8681C51.4141 45.789 52.3661 42.0666 52.5696 37.8649C52.7797 34.2476 52.7403 30.6565 52.7403 27.0325V27.0325ZM46.963 42.513C46.4837 43.7079 45.906 44.6007 44.9803 45.5199C44.0546 46.4455 43.1683 47.0233 41.9735 47.5025C38.5202 48.8746 30.3204 48.5661 26.493 48.5661C22.6655 48.5661 14.4591 48.8746 11.0059 47.5091C9.81102 47.0298 8.91817 46.4521 7.99905 45.5264C7.07337 44.6007 6.49564 43.7145 6.01639 42.5196C4.65085 39.0598 4.95941 30.86 4.95941 27.0325C4.95941 23.2051 4.65085 14.9987 6.01639 11.5454C6.49564 10.3506 7.07337 9.45772 7.99905 8.53861C8.92473 7.61949 9.81102 7.0352 11.0059 6.55594C14.4591 5.1904 22.6655 5.49896 26.493 5.49896C30.3204 5.49896 38.5268 5.1904 41.9801 6.55594C43.1749 7.0352 44.0678 7.61293 44.9869 8.53861C45.9126 9.46429 46.4903 10.3506 46.9695 11.5454C48.3351 14.9987 48.0265 23.2051 48.0265 27.0325C48.0265 30.86 48.3351 39.0598 46.963 42.513Z" fill="#194A33" fill-opacity="0.58"/>
</svg>
