<svg width="24" height="25" viewBox="0 0 24 25" fill="none" xmlns="http://www.w3.org/2000/svg">
<path d="M3 6.87988L6 2.87988H18L21 6.87988M3 6.87988V20.8799C3 21.4103 3.21071 21.919 3.58579 22.2941C3.96086 22.6692 4.46957 22.8799 5 22.8799H19C19.5304 22.8799 20.0391 22.6692 20.4142 22.2941C20.7893 21.919 21 21.4103 21 20.8799V6.87988M3 6.87988H21M16 10.8799C16 11.9407 15.5786 12.9582 14.8284 13.7083C14.0783 14.4585 13.0609 14.8799 12 14.8799C10.9391 14.8799 9.92172 14.4585 9.17157 13.7083C8.42143 12.9582 8 11.9407 8 10.8799" stroke="#194A33" stroke-width="1.5" stroke-linecap="round" stroke-linejoin="round"/>
</svg>
