<svg width="156" height="43" viewBox="0 0 156 43" fill="none" xmlns="http://www.w3.org/2000/svg">
<path fill-rule="evenodd" clip-rule="evenodd" d="M43.4818 12.2866C40.1632 8.58268 38.6335 3.94128 39.0742 0.0256098C42.782 -0.243427 47.0732 1.61314 50.3918 5.31708C53.7103 9.02141 55.24 13.6624 54.7993 17.5785C54.6662 17.5883 54.5319 17.5948 54.3974 17.5989C53.6101 16.3077 52.8002 15.0741 51.9758 13.9053C52.1243 12.4971 52.0979 11.0715 52.0493 9.60564C51.9419 10.9065 51.874 12.236 51.6595 13.4611C50.5048 11.8541 49.3247 10.3752 48.1428 9.04367C48.0609 8.20738 47.8712 7.38635 47.6634 6.5445C47.7584 7.29464 47.879 8.05551 47.9045 8.77723C46.3352 7.03578 44.7647 5.5562 43.2486 4.38379C44.1413 5.15493 45.0469 6.0248 45.9556 6.98497C45.3972 7.06013 44.7971 7.0611 44.2085 7.08236C44.8581 7.14338 45.4905 7.19257 46.1196 7.15921C47.3432 8.46683 48.5704 9.93687 49.7752 11.5484C48.7407 11.5328 47.6428 11.3487 46.5611 11.2084C47.736 11.5198 48.8813 11.8025 50.0466 11.9145C51.3299 13.6587 52.5859 15.5625 53.7821 17.6C50.3243 17.4962 46.5005 15.6562 43.4818 12.2866ZM63.4795 13.3713C66.1541 10.4458 67.4204 6.77015 67.1155 3.66264C64.1775 3.43571 60.7527 4.89202 58.0782 7.81755C56.8401 9.17233 55.9037 10.6876 55.2851 12.2331C55.4889 13.6221 55.5617 15.0321 55.4753 16.4318C55.8862 15.8093 56.3025 15.2061 56.7235 14.6231C56.6216 13.5055 56.6588 12.375 56.7144 11.2121C56.785 12.2446 56.8233 13.2992 56.9795 14.2717C57.9138 13.0015 58.8664 11.8327 59.8191 10.781C59.8936 10.1176 60.0534 9.46722 60.2281 8.80044C60.1445 9.39532 60.04 9.99821 60.0114 10.5706C61.2761 9.19547 62.5386 8.02737 63.7546 7.10298C63.0376 7.7112 62.3094 8.39774 61.5777 9.15622C62.0197 9.21774 62.4956 9.2209 62.9625 9.24018C62.4465 9.28629 61.9443 9.3229 61.4459 9.29377C60.4605 10.3263 59.4703 11.4878 58.496 12.7616C59.3168 12.7533 60.1897 12.6111 61.0491 12.5039C60.1139 12.7467 59.2017 12.9668 58.2764 13.0509C57.2925 14.3577 56.3269 15.7784 55.4013 17.295C55.3994 17.3119 55.3975 17.3288 55.3956 17.3457L55.3735 17.5423C58.0854 17.4343 61.0834 15.9928 63.4795 13.3713Z" fill="#8CBC4F"/>
<path d="M12.888 33.64H13.068C13.236 33.64 13.392 33.58 13.536 33.46C13.68 33.316 13.8 33.148 13.896 32.956C14.016 32.764 14.1 32.56 14.148 32.344C14.196 32.128 14.22 31.924 14.22 31.732V22.156C13.74 22.516 13.092 22.864 12.276 23.2C11.46 23.536 10.596 23.704 9.684 23.704C8.604 23.704 7.62 23.524 6.732 23.164C5.868 22.78 5.124 22.264 4.5 21.616C3.9 20.968 3.432 20.224 3.096 19.384C2.784 18.52 2.628 17.608 2.628 16.648V12.472C2.628 12.304 2.604 12.112 2.556 11.896C2.508 11.68 2.436 11.476 2.34 11.284C2.268 11.092 2.16 10.936 2.016 10.816C1.896 10.672 1.764 10.6 1.62 10.6H1.44V10.24H6.444V10.6H6.264C6.072 10.6 5.904 10.672 5.76 10.816C5.616 10.936 5.484 11.092 5.364 11.284C5.268 11.476 5.184 11.68 5.112 11.896C5.064 12.112 5.04 12.304 5.04 12.472V16.864C5.04 17.656 5.196 18.376 5.508 19.024C5.82 19.672 6.228 20.236 6.732 20.716C7.236 21.172 7.8 21.532 8.424 21.796C9.072 22.036 9.72 22.156 10.368 22.156C11.016 22.156 11.676 22 12.348 21.688C13.02 21.376 13.644 21.016 14.22 20.608V12.472C14.22 12.304 14.196 12.124 14.148 11.932C14.1 11.716 14.028 11.524 13.932 11.356C13.86 11.164 13.764 10.996 13.644 10.852C13.524 10.708 13.38 10.624 13.212 10.6H12.924V10.24H18.036V10.6H17.748C17.58 10.624 17.424 10.708 17.28 10.852C17.136 10.996 17.016 11.164 16.92 11.356C16.824 11.524 16.752 11.716 16.704 11.932C16.656 12.124 16.632 12.304 16.632 12.472V31.732C16.632 31.9 16.656 32.092 16.704 32.308C16.752 32.524 16.824 32.728 16.92 32.92C17.016 33.088 17.136 33.244 17.28 33.388C17.424 33.532 17.58 33.616 17.748 33.64H18.036V34H12.888V33.64ZM27.677 34V32.164L27.497 32.344C26.897 32.944 26.201 33.412 25.409 33.748C24.641 34.084 23.705 34.252 22.601 34.252C21.761 34.252 21.041 34.156 20.441 33.964C19.841 33.772 19.349 33.508 18.965 33.172C18.581 32.812 18.293 32.404 18.101 31.948C17.933 31.492 17.849 31.012 17.849 30.508C17.849 29.692 18.065 28.972 18.497 28.348C18.953 27.724 19.601 27.172 20.441 26.692C21.281 26.212 22.301 25.78 23.501 25.396C24.725 24.988 26.117 24.592 27.677 24.208C27.629 23.272 27.437 22.516 27.101 21.94C26.765 21.364 26.369 20.92 25.913 20.608C25.457 20.272 24.977 20.056 24.473 19.96C23.969 19.84 23.537 19.78 23.177 19.78C22.553 19.78 22.001 19.876 21.521 20.068C21.041 20.236 20.621 20.476 20.261 20.788C19.901 21.076 19.601 21.412 19.361 21.796C19.145 22.18 18.977 22.564 18.857 22.948H18.533V20.14C18.749 20.14 19.001 20.068 19.289 19.924C19.577 19.756 19.913 19.576 20.297 19.384C20.705 19.192 21.185 19.024 21.737 18.88C22.313 18.712 22.997 18.628 23.789 18.628C25.109 18.628 26.177 18.796 26.993 19.132C27.809 19.468 28.433 19.912 28.865 20.464C29.321 21.016 29.621 21.652 29.765 22.372C29.909 23.068 29.981 23.788 29.981 24.532V31.66C29.981 32.14 30.101 32.596 30.341 33.028C30.581 33.436 30.905 33.64 31.313 33.64V34H27.677ZM27.677 30.58V25.432L27.317 25.504C26.741 25.648 26.033 25.84 25.193 26.08C24.377 26.32 23.597 26.632 22.853 27.016C22.109 27.4 21.473 27.856 20.945 28.384C20.417 28.912 20.153 29.524 20.153 30.22C20.153 30.988 20.465 31.624 21.089 32.128C21.713 32.632 22.529 32.884 23.537 32.884C24.329 32.884 25.025 32.716 25.625 32.38C26.225 32.02 26.777 31.564 27.281 31.012L27.677 30.58ZM45.8221 31.66C45.8221 31.852 45.8461 32.068 45.8941 32.308C45.9661 32.524 46.0501 32.728 46.1461 32.92C46.2421 33.112 46.3621 33.28 46.5061 33.424C46.6741 33.568 46.8301 33.64 46.9741 33.64V34H42.3661V33.64C42.5341 33.64 42.6901 33.58 42.8341 33.46C42.9781 33.316 43.0981 33.148 43.1941 32.956C43.2901 32.74 43.3621 32.524 43.4101 32.308C43.4581 32.068 43.4821 31.852 43.4821 31.66V23.02L34.9141 31.408V31.66C34.9141 31.852 34.9381 32.068 34.9861 32.308C35.0341 32.524 35.1061 32.728 35.2021 32.92C35.2981 33.112 35.4061 33.28 35.5261 33.424C35.6701 33.568 35.8261 33.64 35.9941 33.64V34H31.4221V33.64C31.5901 33.64 31.7461 33.58 31.8901 33.46C32.0341 33.316 32.1541 33.148 32.2501 32.956C32.3461 32.74 32.4181 32.524 32.4661 32.308C32.5141 32.068 32.5381 31.852 32.5381 31.66V21.112C32.5381 20.944 32.5141 20.752 32.4661 20.536C32.4181 20.32 32.3461 20.116 32.2501 19.924C32.1541 19.732 32.0341 19.576 31.8901 19.456C31.7461 19.312 31.5901 19.24 31.4221 19.24V18.88H35.9941V19.24C35.8021 19.24 35.6341 19.312 35.4901 19.456C35.3701 19.576 35.2621 19.732 35.1661 19.924C35.0941 20.116 35.0341 20.32 34.9861 20.536C34.9381 20.752 34.9141 20.944 34.9141 21.112V29.716L43.4821 21.328V21.112C43.4821 20.944 43.4581 20.752 43.4101 20.536C43.3621 20.32 43.2901 20.116 43.1941 19.924C43.0981 19.732 42.9781 19.576 42.8341 19.456C42.6901 19.312 42.5341 19.24 42.3661 19.24V18.88H46.9741V19.24C46.7821 19.24 46.6021 19.312 46.4341 19.456C46.2901 19.576 46.1701 19.732 46.0741 19.924C46.0021 20.116 45.9421 20.32 45.8941 20.536C45.8461 20.752 45.8221 20.944 45.8221 21.112V31.66ZM43.0501 14.02C43.0501 14.404 42.9541 14.824 42.7621 15.28C42.5701 15.712 42.2941 16.12 41.9341 16.504C41.5741 16.864 41.1421 17.164 40.6381 17.404C40.1581 17.644 39.6181 17.764 39.0181 17.764C38.4661 17.764 37.9381 17.656 37.4341 17.44C36.9541 17.2 36.5341 16.9 36.1741 16.54C35.8141 16.18 35.5261 15.784 35.3101 15.352C35.0941 14.896 34.9861 14.452 34.9861 14.02H35.2021C35.2261 14.164 35.2981 14.368 35.4181 14.632C35.5621 14.872 35.7781 15.124 36.0661 15.388C36.3541 15.652 36.7261 15.88 37.1821 16.072C37.6621 16.264 38.2621 16.36 38.9821 16.36C39.7261 16.36 40.3381 16.264 40.8181 16.072C41.2981 15.88 41.6821 15.652 41.9701 15.388C42.2581 15.124 42.4621 14.872 42.5821 14.632C42.7021 14.368 42.7861 14.164 42.8341 14.02H43.0501ZM50.7288 31.66C50.7288 31.852 50.7528 32.068 50.8008 32.308C50.8488 32.524 50.9208 32.728 51.0168 32.92C51.1128 33.112 51.2208 33.28 51.3408 33.424C51.4848 33.568 51.6408 33.64 51.8088 33.64V34H47.2728V33.64C47.4408 33.64 47.5848 33.58 47.7048 33.46C47.8488 33.316 47.9688 33.148 48.0648 32.956C48.1608 32.74 48.2328 32.524 48.2808 32.308C48.3288 32.068 48.3528 31.852 48.3528 31.66V21.112C48.3528 20.944 48.3288 20.752 48.2808 20.536C48.2328 20.32 48.1608 20.116 48.0648 19.924C47.9688 19.732 47.8488 19.576 47.7048 19.456C47.5848 19.312 47.4408 19.24 47.2728 19.24V18.88H51.8088V19.24C51.6168 19.24 51.4488 19.312 51.3048 19.456C51.1848 19.576 51.0768 19.732 50.9808 19.924C50.9088 20.116 50.8488 20.32 50.8008 20.536C50.7528 20.752 50.7288 20.944 50.7288 21.112V25.468H58.9368V21.112C58.9368 20.944 58.9128 20.752 58.8648 20.536C58.8168 20.32 58.7448 20.116 58.6488 19.924C58.5768 19.732 58.4688 19.576 58.3248 19.456C58.2048 19.312 58.0488 19.24 57.8568 19.24V18.88H62.3928V19.24C62.2008 19.24 62.0328 19.312 61.8888 19.456C61.7688 19.576 61.6608 19.732 61.5648 19.924C61.4688 20.116 61.3968 20.32 61.3488 20.536C61.3248 20.752 61.3128 20.944 61.3128 21.112V31.66C61.3128 31.852 61.3368 32.068 61.3848 32.308C61.4328 32.524 61.5048 32.728 61.6008 32.92C61.6968 33.112 61.8048 33.28 61.9248 33.424C62.0688 33.568 62.2248 33.64 62.3928 33.64V34H57.8568V33.64C58.0248 33.64 58.1688 33.58 58.2888 33.46C58.4328 33.316 58.5528 33.148 58.6488 32.956C58.7448 32.74 58.8168 32.524 58.8648 32.308C58.9128 32.068 58.9368 31.852 58.9368 31.66V26.656H50.7288V31.66ZM77.5328 34V33.64C77.7008 33.64 77.8568 33.58 78.0008 33.46C78.1448 33.316 78.2648 33.148 78.3608 32.956C78.4808 32.74 78.5648 32.524 78.6128 32.308C78.6608 32.068 78.6848 31.852 78.6848 31.66V21.112C78.6848 20.944 78.6608 20.752 78.6128 20.536C78.5648 20.32 78.4808 20.116 78.3608 19.924C78.2648 19.732 78.1448 19.576 78.0008 19.456C77.8568 19.312 77.7008 19.24 77.5328 19.24V18.88H82.2128V19.24C81.8528 19.24 81.5648 19.468 81.3488 19.924C81.1328 20.356 81.0248 20.752 81.0248 21.112V31.66C81.0248 31.852 81.0488 32.068 81.0968 32.308C81.1448 32.524 81.2168 32.728 81.3128 32.92C81.4328 33.112 81.5648 33.28 81.7088 33.424C81.8528 33.568 82.0208 33.64 82.2128 33.64V34H77.5328ZM69.0368 25.432C71.2448 25.432 72.8768 25.84 73.9328 26.656C75.0128 27.472 75.5528 28.48 75.5528 29.68C75.5528 30.28 75.4088 30.844 75.1208 31.372C74.8568 31.9 74.4488 32.356 73.8968 32.74C73.3448 33.124 72.6488 33.436 71.8088 33.676C70.9688 33.892 69.9728 34 68.8208 34H62.7008V33.64C62.8688 33.64 63.0248 33.58 63.1688 33.46C63.3128 33.316 63.4328 33.148 63.5288 32.956C63.6488 32.74 63.7328 32.524 63.7808 32.308C63.8288 32.068 63.8528 31.852 63.8528 31.66V21.112C63.8528 20.944 63.8288 20.752 63.7808 20.536C63.7328 20.32 63.6488 20.116 63.5288 19.924C63.4328 19.732 63.3128 19.576 63.1688 19.456C63.0248 19.312 62.8688 19.24 62.7008 19.24V18.88H67.3808V19.24C67.0208 19.24 66.7328 19.468 66.5168 19.924C66.3008 20.356 66.1928 20.752 66.1928 21.112V25.432H69.0368ZM68.7488 32.812C70.3328 32.812 71.4728 32.56 72.1688 32.056C72.8888 31.528 73.2488 30.88 73.2488 30.112C73.2488 29.68 73.1528 29.26 72.9608 28.852C72.7688 28.42 72.4688 28.048 72.0608 27.736C71.6768 27.4 71.1968 27.136 70.6208 26.944C70.0448 26.728 69.3848 26.62 68.6408 26.62H66.1928V32.812H68.7488ZM96.9576 31.66C96.9576 31.852 96.9816 32.068 97.0296 32.308C97.1016 32.524 97.1856 32.728 97.2816 32.92C97.3776 33.112 97.4976 33.28 97.6416 33.424C97.8096 33.568 97.9656 33.64 98.1096 33.64V34H93.5016V33.64C93.6696 33.64 93.8256 33.58 93.9696 33.46C94.1136 33.316 94.2336 33.148 94.3296 32.956C94.4256 32.74 94.4976 32.524 94.5456 32.308C94.5936 32.068 94.6176 31.852 94.6176 31.66V23.02L86.0496 31.408V31.66C86.0496 31.852 86.0736 32.068 86.1216 32.308C86.1696 32.524 86.2416 32.728 86.3376 32.92C86.4336 33.112 86.5416 33.28 86.6616 33.424C86.8056 33.568 86.9616 33.64 87.1296 33.64V34H82.5576V33.64C82.7256 33.64 82.8816 33.58 83.0256 33.46C83.1696 33.316 83.2896 33.148 83.3856 32.956C83.4816 32.74 83.5536 32.524 83.6016 32.308C83.6496 32.068 83.6736 31.852 83.6736 31.66V21.112C83.6736 20.944 83.6496 20.752 83.6016 20.536C83.5536 20.32 83.4816 20.116 83.3856 19.924C83.2896 19.732 83.1696 19.576 83.0256 19.456C82.8816 19.312 82.7256 19.24 82.5576 19.24V18.88H87.1296V19.24C86.9376 19.24 86.7696 19.312 86.6256 19.456C86.5056 19.576 86.3976 19.732 86.3016 19.924C86.2296 20.116 86.1696 20.32 86.1216 20.536C86.0736 20.752 86.0496 20.944 86.0496 21.112V29.716L94.6176 21.328V21.112C94.6176 20.944 94.5936 20.752 94.5456 20.536C94.4976 20.32 94.4256 20.116 94.3296 19.924C94.2336 19.732 94.1136 19.576 93.9696 19.456C93.8256 19.312 93.6696 19.24 93.5016 19.24V18.88H98.1096V19.24C97.9176 19.24 97.7376 19.312 97.5696 19.456C97.4256 19.576 97.3056 19.732 97.2096 19.924C97.1376 20.116 97.0776 20.32 97.0296 20.536C96.9816 20.752 96.9576 20.944 96.9576 21.112V31.66ZM94.1856 14.02C94.1856 14.404 94.0896 14.824 93.8976 15.28C93.7056 15.712 93.4296 16.12 93.0696 16.504C92.7096 16.864 92.2776 17.164 91.7736 17.404C91.2936 17.644 90.7536 17.764 90.1536 17.764C89.6016 17.764 89.0736 17.656 88.5696 17.44C88.0896 17.2 87.6696 16.9 87.3096 16.54C86.9496 16.18 86.6616 15.784 86.4456 15.352C86.2296 14.896 86.1216 14.452 86.1216 14.02H86.3376C86.3616 14.164 86.4336 14.368 86.5536 14.632C86.6976 14.872 86.9136 15.124 87.2016 15.388C87.4896 15.652 87.8616 15.88 88.3176 16.072C88.7976 16.264 89.3976 16.36 90.1176 16.36C90.8616 16.36 91.4736 16.264 91.9536 16.072C92.4336 15.88 92.8176 15.652 93.1056 15.388C93.3936 15.124 93.5976 14.872 93.7176 14.632C93.8376 14.368 93.9216 14.164 93.9696 14.02H94.1856ZM120.476 32.74V37.24H120.116C120.092 36.928 120.008 36.58 119.864 36.196C119.72 35.812 119.516 35.452 119.252 35.116C119.012 34.804 118.724 34.54 118.388 34.324C118.052 34.108 117.68 34 117.272 34H100.676C100.268 34 99.8962 34.108 99.5602 34.324C99.2242 34.564 98.9242 34.84 98.6602 35.152C98.4202 35.488 98.2162 35.848 98.0482 36.232C97.9042 36.616 97.8202 36.952 97.7962 37.24H97.4362V32.74H99.0202C99.7882 32.74 100.328 32.296 100.64 31.408L108.92 9.7L117.272 31.3C117.44 31.66 117.668 31.996 117.956 32.308C118.244 32.596 118.58 32.74 118.964 32.74H120.476ZM101.432 32.74H115.292L108.344 14.848L101.432 32.74ZM127.723 34.252C126.523 34.252 125.443 34.06 124.483 33.676C123.523 33.268 122.695 32.728 121.999 32.056C121.327 31.36 120.799 30.544 120.415 29.608C120.055 28.672 119.875 27.652 119.875 26.548C119.875 25.372 120.079 24.304 120.487 23.344C120.895 22.36 121.459 21.52 122.179 20.824C122.899 20.128 123.751 19.588 124.735 19.204C125.719 18.82 126.787 18.628 127.939 18.628C129.091 18.628 130.147 18.82 131.107 19.204C132.067 19.564 132.895 20.08 133.591 20.752C134.287 21.424 134.827 22.228 135.211 23.164C135.595 24.076 135.787 25.084 135.787 26.188C135.787 27.22 135.607 28.228 135.247 29.212C134.911 30.172 134.395 31.024 133.699 31.768C133.027 32.512 132.187 33.112 131.179 33.568C130.195 34.024 129.043 34.252 127.723 34.252ZM127.507 19.816C126.643 19.864 125.875 20.08 125.203 20.464C124.555 20.824 124.003 21.304 123.547 21.904C123.115 22.48 122.779 23.14 122.539 23.884C122.323 24.628 122.215 25.384 122.215 26.152C122.215 27.04 122.347 27.904 122.611 28.744C122.899 29.56 123.295 30.292 123.799 30.94C124.327 31.588 124.951 32.104 125.671 32.488C126.391 32.872 127.195 33.064 128.083 33.064C128.971 33.064 129.751 32.872 130.423 32.488C131.119 32.104 131.695 31.612 132.151 31.012C132.607 30.388 132.943 29.692 133.159 28.924C133.399 28.156 133.519 27.388 133.519 26.62C133.519 25.828 133.399 25.036 133.159 24.244C132.919 23.428 132.547 22.696 132.043 22.048C131.539 21.376 130.903 20.836 130.135 20.428C129.391 20.02 128.515 19.816 127.507 19.816ZM152.254 31.66C152.254 31.852 152.278 32.068 152.326 32.308C152.374 32.524 152.446 32.728 152.542 32.92C152.662 33.112 152.794 33.28 152.938 33.424C153.082 33.568 153.25 33.64 153.442 33.64V34H148.762V33.64C148.954 33.64 149.122 33.58 149.266 33.46C149.41 33.316 149.53 33.148 149.626 32.956C149.722 32.74 149.794 32.524 149.842 32.308C149.89 32.068 149.914 31.852 149.914 31.66V21.94L143.902 34.324L138.142 22.66V31.66C138.142 31.852 138.166 32.068 138.214 32.308C138.262 32.524 138.334 32.728 138.43 32.92C138.526 33.112 138.646 33.28 138.79 33.424C138.934 33.568 139.102 33.64 139.294 33.64V34H135.802V33.64C135.994 33.64 136.162 33.568 136.306 33.424C136.45 33.28 136.558 33.112 136.63 32.92C136.726 32.728 136.798 32.524 136.846 32.308C136.894 32.068 136.918 31.852 136.918 31.66V21.112C136.918 20.68 136.858 20.26 136.738 19.852C136.642 19.444 136.33 19.24 135.802 19.24V18.88H139.006L144.514 30.148L150.022 18.88H153.442V19.24C153.082 19.24 152.794 19.468 152.578 19.924C152.362 20.356 152.254 20.752 152.254 21.112V31.66Z" fill="white"/>
</svg>
