<svg width="624" height="172" viewBox="0 0 624 172" fill="none" xmlns="http://www.w3.org/2000/svg">
  <title>TeaHouse logo</title>
  <desc>TeaHouse logo with green leaf icon</desc>

  <!-- Leaf icon from original logo, scaled and positioned -->
  <g transform="translate(200 6) scale(2.8)">
    <path fill-rule="evenodd" clip-rule="evenodd" d="M43.4818 12.2866C40.1632 8.58268 38.6335 3.94128 39.0742 0.0256098C42.782 -0.243427 47.0732 1.61314 50.3918 5.31708C53.7103 9.02141 55.24 13.6624 54.7993 17.5785C54.6662 17.5883 54.5319 17.5948 54.3974 17.5989C53.6101 16.3077 52.8002 15.0741 51.9758 13.9053C52.1243 12.4971 52.0979 11.0715 52.0493 9.60564C51.9419 10.9065 51.874 12.236 51.6595 13.4611C50.5048 11.8541 49.3247 10.3752 48.1428 9.04367C48.0609 8.20738 47.8712 7.38635 47.6634 6.5445C47.7584 7.29464 47.879 8.05551 47.9045 8.77723C46.3352 7.03578 44.7647 5.5562 43.2486 4.38379C44.1413 5.15493 45.0469 6.0248 45.9556 6.98497C45.3972 7.06013 44.7971 7.0611 44.2085 7.08236C44.8581 7.14338 45.4905 7.19257 46.1196 7.15921C47.3432 8.46683 48.5704 9.93687 49.7752 11.5484C48.7407 11.5328 47.6428 11.3487 46.5611 11.2084C47.736 11.5198 48.8813 11.8025 50.0466 11.9145C51.3299 13.6587 52.5859 15.5625 53.7821 17.6C50.3243 17.4962 46.5005 15.6562 43.4818 12.2866ZM63.4795 13.3713C66.1541 10.4458 67.4204 6.77015 67.1155 3.66264C64.1775 3.43571 60.7527 4.89202 58.0782 7.81755C56.8401 9.17233 55.9037 10.6876 55.2851 12.2331C55.4889 13.6221 55.5617 15.0321 55.4753 16.4318C55.8862 15.8093 56.3025 15.2061 56.7235 14.6231C56.6216 13.5055 56.6588 12.375 56.7144 11.2121C56.785 12.2446 56.8233 13.2992 56.9795 14.2717C57.9138 13.0015 58.8664 11.8327 59.8191 10.781C59.8936 10.1176 60.0534 9.46722 60.2281 8.80044C60.1445 9.39532 60.04 9.99821 60.0114 10.5706C61.2761 9.19547 62.5386 8.02737 63.7546 7.10298C63.0376 7.7112 62.3094 8.39774 61.5777 9.15622C62.0197 9.21774 62.4956 9.2209 62.9625 9.24018C62.4465 9.28629 61.9443 9.3229 61.4459 9.29377C60.4605 10.3263 59.4703 11.4878 58.496 12.7616C59.3168 12.7533 60.1897 12.6111 61.0491 12.5039C60.1139 12.7467 59.2017 12.9668 58.2764 13.0509C57.2925 14.3577 56.3269 15.7784 55.4013 17.295C55.3994 17.3119 55.3975 17.3288 55.3956 17.3457L55.3735 17.5423C58.0854 17.4343 61.0834 15.9928 63.4795 13.3713Z" fill="#8CBC4F"/>
  </g>

  <!-- Wordmark -->
  <text x="18" y="133"
        fill="white"
        font-family="Georgia, 'Times New Roman', serif"
        font-size="118"
        letter-spacing="0"
        lengthAdjust="spacingAndGlyphs">
    TeaHouse
  </text>
</svg>
